PathFileType	4	(X/Y/Z)	joints.trc
DataRate	CameraRate	NumFrames	NumMarkers	Units	OrigDataRate	OrigDataStartFrame	OrigNumFrames
30.0	30.0	14	17	m	30.0	26	100
Frame#	Time	smpl_pelvis			l_smpl_hip			r_smpl_hip			smpl_spine			l_smpl_knee			r_smpl_knee			l_smpl_ankle			r_smpl_ankle			l_smpl_mtp			r_smpl_mtp			smpl_head			l_smpl_shoulder			r_smpl_shoulder			l_smpl_elbow			r_smpl_elbow			l_smpl_hand			r_smpl_hand		
		X1	Y1	Z1	X2	Y2	Z2	X3	Y3	Z3	X4	Y4	Z4	X5	Y5	Z5	X6	Y6	Z6	X7	Y7	Z7	X8	Y8	Z8	X9	Y9	Z9	X10	Y10	Z10	X11	Y11	Z11	X12	Y12	Z12	X13	Y13	Z13	X14	Y14	Z14	X15	Y15	Z15	X16	Y16	Z16	X17	Y17	Z17
26	0.833333	0.020130	-0.215654	0.030505	0.083353	-0.289771	0.010869	-0.028308	-0.292982	-0.030492	0.031052	-0.086167	0.034175	0.069218	-0.683242	0.004593	-0.032316	-0.620508	-0.221092	-0.063469	-0.928692	-0.315884	0.117602	-0.637447	-0.612043	-0.056176	-1.055040	-0.258535	0.102114	-0.753195	-0.703492	-0.069381	0.329203	0.283266	0.176047	0.249384	0.262114	-0.192644	0.209921	0.134827	0.381871	0.304352	0.419926	-0.375464	0.158229	-0.034754	0.463763	0.335288	0.668118	-0.575551	0.155774	0.131621
27	0.866667	-0.015478	-0.218333	0.029688	0.022566	-0.301560	-0.017563	-0.102658	-0.285049	0.008947	0.021145	-0.094810	0.020889	-0.065355	-0.638218	-0.171965	-0.369817	-0.575456	0.056320	-0.066807	-0.534897	-0.583452	-0.538638	-0.535685	-0.323118	-0.079538	-0.646580	-0.668724	-0.643166	-0.636570	-0.329311	0.032393	0.386800	0.182972	0.240534	0.244259	0.069278	-0.151160	0.276105	0.123811	0.451361	0.346712	-0.004485	-0.385669	0.343414	0.052362	0.456677	0.174158	0.182921	-0.578792	0.246743	0.185278
28	0.900000	-0.010510	-0.264763	0.035138	0.078026	-0.309951	0.001047	-0.024382	-0.371293	0.048210	-0.084272	-0.166297	-0.009949	0.326441	-0.568562	-0.136779	0.118095	-0.722039	0.017684	0.061093	-0.291855	-0.293339	0.315114	-1.078820	-0.097558	0.095123	-0.300957	-0.430790	0.409415	-1.177226	-0.067936	-0.494403	-0.133670	-0.314430	-0.209568	-0.053068	-0.372538	-0.465002	-0.227401	-0.124042	0.013381	0.065720	-0.436959	-0.528266	-0.436069	0.006485	0.201307	0.247584	-0.456427	-0.610084	-0.605824	0.198281
29	0.933333	0.012269	-0.269194	0.040853	0.079581	-0.341074	0.064216	-0.037674	-0.363216	0.054004	0.011368	-0.170643	-0.048833	0.227371	-0.651933	0.258270	0.065164	-0.699823	0.184435	0.192508	-1.032470	0.077749	0.338982	-0.957864	-0.002440	0.281042	-1.109796	0.155618	0.331903	-1.079928	0.080324	-0.016417	0.275923	-0.249588	0.195546	0.131379	-0.220651	-0.184426	0.124086	-0.253706	0.442060	0.172497	-0.137747	-0.433730	0.051005	-0.312866	0.566265	0.203841	0.091381	-0.564319	0.236752	-0.447192
30	0.966667	0.019271	-0.242848	0.026098	0.053090	-0.338293	0.018430	-0.058447	-0.307508	-0.012769	0.071919	-0.128301	0.004322	0.054239	-0.692185	-0.121857	-0.095430	-0.648940	-0.147035	0.262459	-0.735992	-0.489401	0.146624	-0.803952	-0.450010	0.275933	-0.870172	-0.534005	0.104643	-0.941408	-0.479312	0.121371	0.366561	0.031031	0.324370	0.203110	0.089530	-0.021332	0.235782	-0.083881	0.575144	0.190743	0.088586	-0.186232	0.122034	-0.240719	0.636765	0.174803	0.337270	-0.380642	0.290415	-0.208132
31	1.000000	0.008208	-0.251490	0.034270	0.033231	-0.351831	0.039337	-0.083858	-0.310447	0.013358	0.072860	-0.147865	-0.013905	0.079927	-0.740113	0.128503	-0.302196	-0.597275	0.162409	0.000853	-1.094321	-0.085998	-0.224586	-0.917369	-0.094003	0.035005	-1.189700	0.010244	-0.334009	-0.994018	-0.035109	0.415927	0.227033	0.033004	0.448572	-0.030429	0.061441	0.200020	0.236161	-0.076643	0.645098	-0.166536	-0.020799	-0.038614	0.351062	-0.091474	0.785101	-0.298894	0.153669	-0.024607	0.543493	0.083473
32	1.033333	-0.016610	-0.219101	0.039105	0.042416	-0.280285	-0.018566	-0.069412	-0.309274	0.007459	-0.030027	-0.093758	0.048336	0.036392	-0.664445	-0.051989	0.048713	-0.685531	0.049275	-0.182366	-0.533316	-0.387303	0.274457	-0.926213	-0.209402	-0.206755	-0.656283	-0.450861	0.307329	-1.068651	-0.189686	0.050594	0.329216	0.315397	0.202689	0.147211	0.191957	-0.154630	0.258512	0.295296	0.413139	-0.019380	0.214937	-0.407441	0.318313	0.282988	0.524426	-0.092939	0.438947	-0.315931	0.478631	0.471732
33	1.066667	-0.027841	-0.240387	0.038717	0.040475	-0.289176	-0.017840	-0.060251	-0.346589	0.025170	-0.075381	-0.119465	0.031884	0.221043	-0.616631	-0.121997	-0.099902	-0.729913	-0.015750	-0.112008	-0.679711	-0.372351	-0.258986	-0.889794	-0.366534	-0.079301	-0.791568	-0.454466	-0.280237	-1.033805	-0.339816	-0.250575	0.325963	0.145248	-0.049752	0.299629	-0.015034	-0.352278	0.125603	0.155243	0.133749	0.489205	0.021087	-0.465982	-0.099065	0.147076	0.193983	0.506948	0.274824	-0.506930	-0.106619	0.406216
34	1.100000	0.014885	-0.217622	0.026928	0.098601	-0.263994	0.004216	-0.003020	-0.312400	-0.022728	-0.021696	-0.099124	0.026587	0.112908	-0.622210	-0.119429	0.217093	-0.613296	-0.091959	0.237914	-0.660949	-0.525301	0.347461	-0.422145	-0.440557	0.263932	-0.797512	-0.536991	0.430574	-0.502335	-0.534821	-0.161620	0.307426	0.258996	0.086235	0.226139	0.228957	-0.270479	0.223084	0.077720	0.293780	0.365759	0.277043	-0.444512	0.133352	-0.089619	0.331645	0.418150	0.528795	-0.673991	0.049867	0.010159
35	1.133333	-0.012177	-0.211721	0.033914	0.056417	-0.251768	-0.030934	-0.053801	-0.302418	-0.012930	-0.040855	-0.093488	0.064707	0.250654	-0.388379	-0.345646	0.162549	-0.624027	-0.044742	0.039051	-0.126121	-0.604226	0.116139	-0.516085	-0.443804	0.098041	-0.122412	-0.734917	0.184383	-0.609495	-0.536184	-0.159713	0.242871	0.423699	0.062517	0.262035	0.266983	-0.288089	0.110133	0.299973	0.242307	0.375465	0.117896	-0.514428	0.051818	0.433880	0.456537	0.526978	0.113511	-0.510439	-0.167047	0.592524
36	1.166667	0.004431	-0.245195	0.032111	0.078835	-0.314729	0.022210	-0.039763	-0.345834	0.018899	-0.010436	-0.125468	-0.005658	0.031854	-0.673664	0.154883	-0.022013	-0.688949	0.218169	0.132328	-0.812673	-0.232738	0.066068	-0.873819	-0.145646	0.143562	-0.944539	-0.184494	0.045710	-1.018584	-0.121129	-0.268749	0.313336	0.017069	-0.024531	0.283838	-0.078420	-0.348937	0.100055	0.044546	0.127348	0.440229	-0.217496	-0.534311	-0.064986	0.023734	0.214008	0.681391	-0.160727	-0.504818	-0.133761	0.268421
37	1.200000	-0.029990	-0.256145	0.047030	0.013598	-0.344598	0.025504	-0.087925	-0.339609	0.078190	-0.043089	-0.146751	-0.012416	-0.091259	-0.704900	0.030784	0.072317	-0.679709	0.101299	-0.286658	-0.770783	-0.342112	0.092440	-0.799149	-0.298294	-0.300024	-0.905815	-0.382033	0.146488	-0.934140	-0.319728	-0.054321	0.344904	-0.044713	0.075154	0.168547	-0.192437	-0.203619	0.240043	0.071726	0.116016	0.041606	-0.403108	-0.366190	0.334776	0.263677	0.338645	-0.057648	-0.489383	-0.209080	0.526120	0.354325
38	1.233333	-0.000715	-0.216310	0.028011	0.015667	-0.308567	-0.001432	-0.095020	-0.261468	0.001576	0.064906	-0.111226	0.006860	-0.257223	-0.492365	-0.146768	-0.400955	-0.466702	-0.088818	-0.395273	-0.392080	-0.523538	-0.458635	-0.605452	-0.470226	-0.484327	-0.490851	-0.558804	-0.592017	-0.656891	-0.489782	0.282467	0.292038	0.089854	0.376974	0.038500	0.001124	0.120564	0.321894	-0.016658	0.518113	-0.166756	-0.023594	-0.025730	0.516537	-0.097208	0.627636	-0.307603	0.155431	-0.104114	0.734868	0.026691
39	1.266667	-0.028669	-0.252577	0.042190	-0.009206	-0.355809	0.035797	-0.120212	-0.310453	0.074563	0.013475	-0.148613	-0.035851	-0.074394	-0.729149	-0.004276	-0.235890	-0.551890	0.367009	-0.256653	-0.707616	-0.389506	-0.383459	-0.915705	0.503835	-0.282316	-0.817664	-0.472637	-0.365003	-0.879898	0.641498	0.345310	0.161558	0.071816	0.327665	-0.099737	-0.039292	0.194670	0.285749	-0.038927	0.352007	-0.308630	-0.171416	0.047515	0.476462	-0.123790	0.288672	-0.473838	0.013521	-0.151850	0.476686	0.033890
